# AST/ASF file generated using VICON BodyLanguage
# -----------------------------------------------
:version 1.10
:name VICON
:units
  mass 1.0
  length 0.45
  angle deg
:documentation
   .ast/.asf automatically generated from VICON data using
   VICON BodyBuilder and BodyLanguage model FoxedUp or BRILLIANT.MOD
:root
   order TX TY TZ RX RY RZ
   axis XYZ
   position 0 0 0  
   orientation 0 0 0 
:bonedata
  begin
     id 1 
     name lhipjoint
     direction 0.64773 -0.699417 0.302095 
     length 2.48597 
     axis 0 0 0  XYZ
  end
  begin
     id 2 
     name lfemur
     direction 0.34202 -0.939693 0  
     length 6.71947  
     axis 0 0 20  XYZ
    dof rx ry rz
    limits (-160.0 20.0)
           (-70.0 70.0)
           (-60.0 70.0)
  end
  begin
     id 3 
     name ltibia
     direction 0.34202 -0.939693 0   
     length 8.08777   
     axis 0 0 20   XYZ
    dof rx
    limits (-10.0 170.0)
  end
  begin
     id 4 
     name lfoot
     direction 0.0808503 -0.222134 0.971658   
     length 2.08264   
     axis -90 7.62852e-016 20   XYZ
    dof rx rz
    limits (-45.0 90.0)
           (-70.0 20.0)
  end
  begin
     id 5 
     name ltoes
     direction 1.53502e-011 -4.22007e-011 1   
     length 1.04662   
     axis -90 7.62852e-016 20   XYZ
    dof rx
    limits (-90.0 20.0)
  end
  begin
     id 6 
     name rhipjoint
     direction -0.610924 -0.726792 0.313919   
     length 2.39233  
     axis 0 0 0  XYZ 
  end
  begin
     id 7 
     name rfemur
     direction -0.34202 -0.939693 0   
     length 6.96955   
     axis 0 0 -20   XYZ
    dof rx ry rz
    limits (-160.0 20.0)
           (-70.0 70.0)
           (-70.0 60.0)
  end
  begin
     id 8 
     name rtibia
     direction -0.34202 -0.939693 0   
     length 8.19584   
     axis 0 0 -20   XYZ
    dof rx
    limits (-10.0 170.0)
 end
 begin
     id 9 
     name rfoot
     direction -0.077777 -0.213691 0.9738   
     length 2.07539  
     axis -90 -7.62852e-016 -20   XYZ
    dof rx rz
    limits (-45.0 90.0)
           (-20.0 70.0)
  end
  begin
     id 10 
     name rtoes
     direction -1.53558e-011 -4.22006e-011 1   
     length 1.04381   
     axis -90 -7.62852e-016 -20   XYZ
    dof rx
    limits (-90.0 20.0)
  end
  begin
     id 11 
     name lowerback
     direction -0.00971646 0.996074 0.0879841   
     length 1.67643   
     axis 0 0 0   XYZ
    dof rx ry rz
    limits (-20.0 45.0)
           (-30.0 30.0)
           (-30.0 30.0)
  end
  begin
     id 12 
     name upperback
     direction 0.0127391 0.991676 0.128127   
     length 1.63741   
     axis 0 0 0   XYZ
    dof rx ry rz
    limits (-20.0 45.0)
           (-30.0 30.0)
           (-30.0 30.0)
  end
  begin
     id 13 
     name thorax
     direction 0.0167583 0.996049 0.0872067   
     length 1.65931   
     axis 0 0 0   XYZ
    dof rx ry rz
    limits (-20.0 45.0)
           (-30.0 30.0)
           (-30.0 30.0)
  end
  begin
     id 14 
     name lowerneck
     direction -0.0317829 0.998312 0.0486079   
     length 1.79021   
     axis 0 0 0   XYZ
    dof rx ry rz
    limits (-20.0 45.0)
           (-30.0 30.0)
           (-30.0 30.0)
  end
  begin
     id 15 
     name upperneck
     direction 0.0896851 0.972452 -0.215159   
     length 1.78797   
     axis 0 0 0   XYZ
    dof rx ry rz
    limits (-20.0 45.0)
           (-30.0 30.0)
           (-30.0 30.0)
  end
  begin
     id 16
     name head
     direction 0.0310949 0.996503 -0.0775582  
     length 1.81549  
     axis 0 0 0   XYZ
    dof rx ry rz
    limits (-20.0 45.0)
           (-30.0 30.0)
           (-30.0 30.0)
  end
  begin
     id 17 
     name lclavicle
     direction 0.853638 0.502051 -0.138733  
     length 3.31627  
     axis 0 0 0   XYZ
    dof ry rz
    limits (-20.0 10.0)
           (0.0 20.0)
  end
  begin
     id 18 
     name lhumerus
     direction 1 -4.48962e-011 -1.41788e-018   
     length 5.54893   
     axis 180 -30 -90   XYZ
    dof rx ry rz
    limits (-60.0 90.0)
           (-90.0 90.0)
           (-90.0 90.0)
  end
  begin
     id 19
     name lradius
     direction 1 -4.48962e-011 -4.95754e-027   
     length 3.02898   
     axis 180 -30 -90   XYZ
    dof rx
    limits (-10.0 170.0)
  end
  begin
     id 20
     name lwrist
     direction 1 -4.48952e-011 -1.03764e-026   
     length 1.51449   
     axis 9.09556e-015 90 90   XYZ
    dof ry
    limits (-180.0 0.0)
 end
  begin
     id 21 
     name lhand
     direction 1 -4.4902e-011 -2.07528e-026   
     length 0.640951   
     axis 1.3242e-014 90 90   XYZ
    dof rx rz
    limits (-90.0 90.0)
           (-45.0 45.0)
  end
  begin
     id 22 
     name lfingers
     direction 1 -4.49014e-011 -4.15056e-026   
     length 0.516751   
     axis 2.64841e-014 90 90   XYZ
    dof rx
    limits (0.0 90.0)
  end
  begin
     id 23
     name lthumb
     direction 0.707107 -6.35008e-011 0.707107   
     length 0.741954   
     axis -90 45 2.85299e-015   XYZ
    dof rx rz
    limits (-45.0 45.0)
           (-45.0 45.0)
  end
  begin
     id 24 
     name rclavicle
     direction -0.888531 0.455324 -0.0565039   
     length 3.20126  
     axis 0 0 0   XYZ 
    dof ry rz
    limits (-10.0 20.0)
           (-20.0 0.0)
  end
  begin
     id 25 
     name rhumerus
     direction -1 -4.48946e-011 -8.98298e-028  
     length 5.3519   
     axis 180 30 90   XYZ
    dof rx ry rz
    limits (-90.0 60.0)
           (-90.0 90.0)
           (-90.0 90.0)
  end
  begin
     id 26 
     name rradius
     direction -1 -4.4899e-011 -3.18779e-027   
     length 3.02531   
     axis 180 30 90   XYZ
    dof rx
    limits (-10.0 170.0)
  end
  begin
     id 27 
     name rwrist
     direction -1 -4.4897e-011 -1.03764e-026   
     length 1.51266   
     axis 9.09556e-015 -90 -90   XYZ
    dof ry
    limits (-180.0 0.0)
  end
  begin
     id 28
     name rhand
     direction -1 -4.48941e-011 -2.07528e-026   
     length 0.78389   
     axis 1.3242e-014 -90 -90   XYZ
    dof rx rz
    limits (-90.0 90.0)
           (-45.0 45.0)
  end
  begin
     id 29
     name rfingers
     direction -1 -4.49012e-011 -4.15056e-026   
     length 0.631992   
     axis 2.64841e-014 -90 -90   XYZ
    dof rx
    limits (0.0 90.0)
  end
  begin
     id 30
     name rthumb
     direction -0.707107 -6.3496e-011 0.707107   
     length 0.907418   
     axis -90 -45 -2.85299e-015   XYZ
    dof rx rz
    limits (-45.0 45.0)
           (-45.0 45.0)
  end
:hierarchy
  begin
    root lhipjoint rhipjoint lowerback
    lhipjoint lfemur
    lfemur ltibia
    ltibia lfoot
    lfoot ltoes
    rhipjoint rfemur
    rfemur rtibia
    rtibia rfoot
    rfoot rtoes
    lowerback upperback
    upperback thorax
    thorax lowerneck lclavicle rclavicle
    lowerneck upperneck
    upperneck head
    lclavicle lhumerus
    lhumerus lradius
    lradius lwrist
    lwrist lhand lthumb
    lhand lfingers
    rclavicle rhumerus
    rhumerus rradius
    rradius rwrist
    rwrist rhand rthumb
    rhand rfingers
  end

#!OML:ASF E:\Style3\Style3.ASF
:FULLY-SPECIFIED
:DEGREES
1287
root -0.564363 17.6276 -1.1596 -134.641 54.8702 -177.185
lowerback 24.5993 3.33097 -4.1884
upperback 0.270956 3.04947 -2.02215
thorax -13.6341 1.63053 -1.01375
lowerneck -3.18144 4.46298 3.10296
upperneck -15.457 6.27394 -5.21283
head -4.269 3.55405 -2.49232
rclavicle 1.38851e-013 6.54002e-014
rhumerus -12.0668 37.8601 -57.0014
rradius 146.81
rwrist -50.745
rhand 24.7806 22.01
rfingers 7.12502
rthumb 48.9596 0.257635
lclavicle 1.38851e-013 6.54002e-014
lhumerus -15.5657 -42.926 71.0938
lradius 146.161
lwrist 51.6148
lhand 25.4825 17.6596
lfingers 7.12502
lthumb 49.6037 39.0879
rfemur -39.7939 0.877578 14.918
rtibia 13.566
rfoot -20.3273 -39.8929
rtoes 9.3725
lfemur -62.4892 -22.0005 5.18193
ltibia 22.068
lfoot -5.29179 3.2607
ltoes -21.7716
1288
root -0.563672 17.6271 -1.1605 -134.641 54.8701 -177.214
lowerback 24.5865 3.31641 -4.18352
upperback 0.29266 3.03737 -1.9969
thorax -13.6022 1.62605 -0.981467
lowerneck -3.16279 4.41784 3.14568
upperneck -15.4799 6.21052 -5.23034
head -4.28235 3.52103 -2.50666
rclavicle 2.9122e-014 -8.24956e-015
rhumerus -12.0836 37.8759 -57.0296
rradius 146.768
rwrist -50.6983
rhand 24.8747 22.1034
rfingers 7.12502
rthumb 49.0461 0.393868
lclavicle 2.9122e-014 -8.24956e-015
lhumerus -15.6626 -42.9568 71.1201
lradius 146.187
lwrist 51.5748
lhand 25.3873 17.5634
lfingers 7.12502
lthumb 49.5165 39.0363
rfemur -39.8409 0.885881 14.8932
rtibia 13.62
rfoot -20.9192 -39.8005
rtoes 10.3281
lfemur -62.513 -22.0382 5.2329
ltibia 22.0215
lfoot -5.22979 3.31734
ltoes -22.0022
1289
root -0.562713 17.6271 -1.16148 -134.608 54.8507 -177.21
lowerback 24.569 3.29511 -4.17167
upperback 0.326773 3.02099 -1.96115
thorax -13.5533 1.61976 -0.938761
lowerneck -3.19386 4.40688 3.24005
upperneck -15.5567 6.19166 -5.31515
head -4.30049 3.51382 -2.55428
rclavicle -5.61567e-014 9.54166e-015
rhumerus -11.9907 37.8919 -56.9552
rradius 146.754
rwrist -50.7237
rhand 24.8902 22.1358
rfingers 7.12502
rthumb 49.0604 0.433334
lclavicle -5.61567e-014 9.54166e-015
lhumerus -15.6912 -42.9568 71.1413
lradius 146.18
lwrist 51.5273
lhand 25.3786 17.5093
lfingers 7.12502
lthumb 49.5086 38.9863
rfemur -39.8705 0.970488 14.8403
rtibia 13.6435
rfoot -21.2709 -39.7789
rtoes 10.9149
lfemur -62.5395 -22.0566 5.28547
ltibia 21.9907
lfoot -5.18793 3.35794
ltoes -22.3595
1290
root -0.562897 17.6257 -1.16071 -134.651 54.8246 -177.32
lowerback 24.5719 3.27124 -4.17366
upperback 0.363933 2.99406 -1.9475
thorax -13.5114 1.6089 -0.91073
lowerneck -3.33448 4.36049 3.28132
upperneck -15.551 6.13627 -5.27734
head -4.27442 3.48414 -2.54187
rclavicle -8.3092e-014 5.65542e-014
rhumerus -11.8703 37.8691 -56.8725
rradius 146.727
rwrist -50.6643
rhand 24.6771 22.0798
rfingers 7.12502
rthumb 48.8645 0.280686
lclavicle -8.3092e-014 5.65542e-014
lhumerus -15.5826 -42.9915 71.1
lradius 146.139
lwrist 51.4788
lhand 25.344 17.5662
lfingers 7.12502
lthumb 49.4768 39.0593
rfemur -39.9143 0.946722 14.7808
rtibia 13.6465
rfoot -21.4417 -39.8023
rtoes 11.1588
lfemur -62.6197 -22.095 5.29263
ltibia 21.9718
lfoot -5.16484 3.36171
ltoes -22.2094
1291
root -0.561867 17.6262 -1.16354 -134.612 54.8323 -177.271
lowerback 24.5804 3.27517 -4.1107
upperback 0.382364 3.02005 -1.92665
thorax -13.4927 1.61729 -0.931573
lowerneck -3.32985 4.2757 3.25383
upperneck -15.569 6.03361 -5.17012
head -4.29094 3.42978 -2.49991
rclavicle 2.90226e-014 -3.94588e-014
rhumerus -11.9132 37.8975 -56.9161
rradius 146.683
rwrist -50.5385
rhand 24.6719 22.043
rfingers 7.12502
rthumb 48.8597 0.241524
lclavicle 2.90226e-014 -3.94588e-014
lhumerus -15.6985 -43.1029 71.1274
lradius 146.077
lwrist 51.483
lhand 25.5572 17.5425
lfingers 7.12502
lthumb 49.6722 38.9357
rfemur -39.9004 0.910834 14.835
rtibia 13.6163
rfoot -21.2585 -39.8276
rtoes 10.7281
lfemur -62.6148 -22.1072 5.32864
ltibia 21.977
lfoot -5.17713 3.41725
ltoes -22.2436
